<?xml version="1.0" standalone="no"?>
<!DOCTYPE svg PUBLIC "-//W3C//DTD SVG 20010904//EN"
 "http://www.w3.org/TR/2001/REC-SVG-20010904/DTD/svg10.dtd">
<svg version="1.0" xmlns="http://www.w3.org/2000/svg"
 width="6667.000000pt" height="4167.000000pt" viewBox="0 0 6667.000000 4167.000000"
 preserveAspectRatio="xMidYMid meet">

<g transform="translate(0.000000,4167.000000) scale(0.100000,-0.100000)"
fill="#000000" stroke="none">
<path d="M0 20835 l0 -20835 25731 0 25732 0 -27 33 c-165 206 -313 506 -380
776 -76 298 -79 660 -9 960 9 40 22 75 28 78 6 2 42 -10 79 -27 48 -21 66 -34
63 -45 -12 -30 -37 -165 -48 -260 -15 -124 -7 -398 15 -520 61 -339 208 -650
432 -914 l69 -81 3991 0 3991 0 78 131 c164 275 258 532 317 869 17 101 21
167 22 340 1 118 -1 253 -4 300 -4 71 -3 85 10 86 8 0 28 4 43 9 22 6 26 10
15 17 -9 7 -5 8 14 5 15 -2 25 0 22 4 -3 5 0 17 6 26 11 17 11 17 6 -1 -5 -14
-2 -17 10 -12 11 4 15 2 11 -8 -3 -8 -2 -16 2 -18 30 -11 41 -471 16 -680 -42
-356 -164 -722 -335 -1005 l-39 -63 3405 0 3404 0 0 20835 0 20835 -5267 0
-5266 0 6 -147 c18 -394 151 -711 422 -1009 43 -48 80 -92 81 -98 1 -7 -7 -13
-17 -13 -12 -1 -17 3 -13 9 4 7 2 8 -4 4 -9 -5 -8 -12 0 -26 10 -16 10 -22 -4
-32 -9 -7 -22 -26 -31 -42 l-14 -29 -91 90 c-237 237 -397 532 -462 855 -24
118 -43 335 -34 394 l6 44 -2287 0 -2288 0 6 -142 c10 -253 61 -451 172 -673
180 -360 476 -635 852 -793 94 -39 124 -56 81 -45 -22 6 -22 6 -5 -11 14 -14
17 -31 15 -81 l-3 -62 -50 14 c-347 103 -712 383 -935 716 -115 173 -226 446
-264 647 -20 109 -39 332 -33 388 l5 42 -2004 0 -2004 0 -2 -62 c-12 -386 109
-692 373 -943 198 -188 434 -296 711 -327 95 -10 108 -14 114 -32 4 -12 6 -23
5 -25 -2 -2 2 -7 8 -10 6 -4 12 -26 13 -50 1 -30 5 -40 15 -37 7 3 13 0 13 -6
0 -17 -216 -3 -338 22 -258 52 -489 176 -678 365 -152 151 -246 297 -320 494
-58 153 -75 245 -81 439 l-6 172 -23533 0 -23534 0 0 -20835z m56594 19449 c3
-8 2 -12 -4 -9 -6 3 -10 10 -10 16 0 14 7 11 14 -7z m-3144 -999 c1007 -129
1879 -692 2413 -1556 73 -118 163 -293 149 -288 -5 2 -58 24 -116 49 l-107 45
-61 100 c-260 426 -643 805 -1068 1059 -270 162 -541 274 -846 352 -294 74
-411 88 -764 89 -319 0 -384 -6 -635 -56 -840 -169 -1598 -702 -2053 -1445
l-62 -101 -103 -43 c-56 -23 -108 -45 -115 -47 -17 -7 58 144 134 268 381 631
965 1119 1654 1382 290 111 573 176 900 207 137 13 533 4 680 -15z m-4720
-1420 c164 -25 395 -89 384 -106 -3 -5 0 -9 5 -9 6 0 3 -8 -6 -18 -10 -11 -21
-17 -25 -15 -4 2 -5 -3 -2 -11 4 -10 1 -16 -10 -16 -8 0 -23 -14 -31 -31 -11
-21 -21 -29 -32 -25 -8 4 -59 17 -112 30 -633 159 -1288 -10 -1755 -454 -543
-515 -727 -1298 -472 -2003 40 -111 119 -271 183 -370 25 -39 46 -77 46 -82 0
-18 -85 -135 -94 -130 -22 14 -156 231 -209 339 -277 564 -275 1217 3 1786 55
114 172 300 234 375 194 231 398 399 644 529 226 119 486 198 739 225 121 12
387 5 510 -14z m7929 -619 c11 -7 11 -10 0 -17 -12 -7 -12 -9 0 -9 8 0 5 -7
-8 -17 -12 -10 -23 -28 -24 -40 -1 -13 -5 -23 -10 -23 -5 0 -7 -6 -5 -12 10
-28 -21 -33 -197 -33 -132 -1 -204 -6 -270 -19 -469 -93 -868 -393 -1081 -813
-60 -118 -114 -273 -140 -408 -28 -137 -26 -435 4 -571 68 -313 198 -553 432
-800 l49 -51 -27 -22 c-15 -12 -21 -19 -14 -16 21 11 13 -24 -8 -35 -15 -8
-19 -17 -15 -31 4 -11 2 -19 -5 -19 -6 0 -8 5 -4 12 5 7 3 8 -6 3 -10 -6 -9
-11 5 -22 11 -7 14 -13 8 -13 -21 0 -207 193 -275 285 -158 213 -266 464 -314
730 -12 71 -17 151 -17 275 0 286 47 489 174 745 89 181 176 303 319 445 173
173 357 294 575 379 111 43 274 86 380 100 84 11 454 9 474 -3z m-10455 -3911
c-4 -8 -2 -15 4 -15 6 0 13 6 15 13 3 6 6 2 6 -11 1 -13 -3 -20 -9 -17 -5 3
-10 -1 -10 -9 0 -20 17 -30 23 -14 4 9 6 7 6 -3 1 -11 10 -16 25 -16 18 0 23
4 19 16 -4 9 -3 13 1 10 12 -11 16 -68 5 -74 -5 -4 -9 1 -9 9 0 8 -5 18 -12
22 -6 4 -9 3 -6 -2 3 -5 8 -17 12 -28 5 -15 9 -16 21 -6 9 7 15 18 14 24 -3
29 1 40 12 29 8 -8 7 -20 -4 -44 -9 -19 -39 -104 -67 -189 -191 -577 -301
-1113 -356 -1725 -22 -239 -25 -880 -6 -1095 91 -1024 318 -1846 748 -2700
243 -483 505 -886 868 -1335 l24 -31 -73 -41 -74 -41 -44 51 c-24 29 -100 126
-168 217 -848 1129 -1361 2515 -1446 3905 -15 238 -8 901 10 1105 45 488 121
907 244 1350 55 201 186 583 205 602 10 10 13 18 8 18 -7 0 -7 6 0 20 13 23
22 27 14 5z m10114 -8695 c8 0 21 -8 29 -17 9 -11 12 -12 7 -3 -4 8 4 5 18 -7
13 -13 30 -23 36 -23 15 0 15 3 -4 -100 -21 -112 -21 -320 -1 -435 101 -569
562 -996 1142 -1055 300 -31 641 63 877 243 56 43 73 53 64 39 -7 -11 9 -25
33 -29 8 -1 18 -8 23 -16 5 -9 16 -13 28 -10 15 4 19 2 14 -10 -3 -8 0 -18 7
-23 8 -4 10 -3 5 4 -4 7 -2 12 3 12 22 0 10 -19 -36 -59 -149 -132 -389 -246
-623 -297 -120 -26 -439 -27 -560 -1 -352 75 -662 273 -875 556 -136 180 -239
431 -270 653 l-6 48 -32 -14 c-18 -8 -90 -41 -162 -74 -494 -225 -1098 -414
-1658 -517 -1215 -223 -2474 -137 -3632 249 -121 41 -250 85 -287 99 l-66 26
-12 -52 c-42 -175 -161 -443 -268 -602 -252 -375 -601 -647 -1018 -795 -351
-124 -774 -144 -1144 -54 -452 111 -861 383 -1138 759 -95 129 -184 287 -175
311 5 13 3 15 -7 9 -9 -5 -11 -4 -6 4 5 8 22 10 49 6 56 -7 77 6 59 37 l-13
23 20 -23 c11 -13 25 -21 30 -18 5 3 34 -36 64 -87 153 -257 381 -487 637
-643 451 -274 1004 -342 1513 -184 633 197 1133 751 1262 1400 24 118 22 115
40 100 12 -10 16 -9 20 2 3 8 21 14 43 15 47 1 65 5 75 18 4 6 7 -6 5 -25 l-3
-34 100 -38 c231 -88 559 -190 815 -253 1568 -385 3242 -224 4705 452 88 41
163 77 167 81 3 4 11 54 17 112 6 57 21 145 33 195 18 77 22 87 31 68 6 -13
17 -23 25 -23z m-1133 -2615 c-38 -36 -123 -104 -187 -152 -787 -587 -1781
-790 -2725 -558 -275 68 -582 189 -815 321 -237 134 -558 371 -558 411 0 8 -4
12 -9 8 -5 -3 -12 -1 -16 5 -9 14 -15 15 181 -40 173 -48 179 -51 300 -130
372 -244 790 -401 1249 -471 170 -26 522 -36 704 -20 521 46 1024 224 1455
513 82 56 101 63 279 114 105 30 193 56 195 59 3 3 8 5 11 5 3 -1 -25 -30 -64
-65z m-6414 -661 c401 -49 801 -197 1144 -422 138 -90 248 -179 240 -193 -10
-15 -47 10 -41 27 3 8 2 12 -3 9 -6 -3 -9 -14 -8 -25 1 -10 5 -16 9 -14 4 3 8
1 8 -4 0 -5 -9 -12 -20 -15 -12 -3 -17 -1 -14 5 3 5 -3 4 -15 -4 -12 -7 -17
-16 -12 -21 12 -12 2 -39 -11 -31 -6 4 -5 10 3 15 11 7 10 9 -5 9 -14 0 -17
-5 -13 -22 6 -22 6 -22 -14 2 -12 14 -17 19 -13 11 4 -8 -17 4 -47 26 -359
261 -761 422 -1209 485 -56 7 -188 13 -320 13 -316 0 -523 -33 -805 -126 -363
-121 -691 -321 -972 -593 -222 -214 -379 -430 -518 -711 -189 -381 -274 -769
-262 -1195 6 -222 22 -341 74 -555 21 -82 36 -157 34 -165 -4 -19 -22 -31 -35
-23 -5 3 -6 1 -2 -6 5 -7 -5 -17 -27 -26 -20 -8 -37 -20 -40 -27 -4 -9 -6 -9
-6 -1 -1 6 6 19 15 27 8 9 11 16 5 16 -5 0 -14 -8 -20 -17 -16 -29 -29 -6 -60
103 -79 273 -105 491 -98 814 5 260 18 365 73 588 160 657 570 1237 1140 1614
407 270 831 412 1349 452 90 7 371 -4 496 -20z m2664 -1304 c3 -5 1 -10 -4
-10 -6 0 -11 5 -11 10 0 6 2 10 4 10 3 0 8 -4 11 -10z m6 -20 c6 0 7 -5 4 -10
-4 -6 -1 -17 5 -25 7 -8 9 -15 4 -15 -5 -1 2 -7 16 -14 14 -8 28 -12 32 -10
13 8 9 -11 -4 -24 -19 -19 3 -14 26 5 16 13 15 11 -3 -9 -13 -15 -28 -25 -34
-21 -6 3 -7 1 -3 -6 4 -6 -8 -30 -27 -54 -136 -168 -243 -368 -343 -642 -5
-16 -9 -11 -16 25 -5 25 -21 86 -35 137 -25 90 -25 93 -8 135 23 58 117 225
172 307 79 115 177 231 191 226 8 -3 18 -5 23 -5z m-238 -2283 c106 -228 253
-433 439 -612 68 -66 162 -147 207 -179 478 -342 1028 -464 1595 -356 54 11
102 17 107 15 4 -3 9 0 11 7 3 7 7 2 10 -10 4 -13 2 -20 -4 -16 -11 7 20 -44
39 -64 7 -8 11 -17 8 -22 -7 -11 24 -22 37 -13 7 4 8 1 3 -6 -4 -8 -17 -10
-32 -6 -15 3 -22 2 -19 -4 6 -10 -68 -29 -219 -56 -122 -22 -411 -30 -559 -16
-647 63 -1232 414 -1600 959 -88 130 -179 306 -172 330 3 9 10 82 15 162 5 80
12 153 16 163 6 13 18 -12 45 -90 20 -59 53 -143 73 -186z m2897 243 c-20 -6
-14 -8 28 -9 31 -1 52 3 52 10 0 6 7 4 15 -5 9 -8 34 -77 56 -153 76 -264 149
-447 268 -678 409 -796 1114 -1414 1955 -1715 381 -136 767 -203 1181 -203
241 0 386 12 602 49 1192 203 2206 1016 2676 2144 17 41 35 77 39 78 5 2 5 9
1 15 -3 6 4 3 18 -6 30 -22 40 -21 32 1 -4 10 3 6 19 -10 14 -15 28 -25 32
-21 3 4 17 8 29 9 12 2 16 0 10 -2 -7 -3 -13 -13 -13 -22 0 -15 2 -15 10 -2
39 60 -39 -136 -124 -315 -382 -797 -1063 -1446 -1881 -1793 -619 -263 -1298
-351 -1970 -257 -1341 189 -2485 1119 -2950 2400 -36 101 -107 343 -130 449
-6 27 -5 28 11 15 11 -9 15 -9 10 -1 -11 18 2 32 27 31 20 -1 20 -2 -3 -9z
m6894 -446 c3 -8 2 -12 -4 -9 -6 3 -10 10 -10 16 0 14 7 11 14 -7z m-16211
-391 c-4 -10 -2 -14 4 -10 5 3 10 0 10 -8 0 -9 -10 -12 -29 -9 -16 1 -26 -1
-23 -6 3 -4 2 -10 -2 -13 -5 -2 -2 -2 4 -1 14 4 37 -71 29 -92 -4 -11 -2 -11
12 -3 12 7 17 23 17 45 -1 19 -1 34 0 34 1 0 10 -9 20 -20 17 -18 17 -20 2
-14 -19 7 -25 -20 -7 -31 6 -3 10 -2 10 3 0 6 8 13 18 16 9 4 -5 -15 -33 -42
-55 -54 -236 -247 -306 -327 -677 -769 -1113 -1709 -1258 -2710 -39 -274 -46
-382 -46 -755 0 -371 6 -471 46 -750 138 -967 557 -1888 1204 -2650 236 -277
602 -614 917 -843 220 -159 673 -433 704 -425 6 2 47 56 90 120 383 566 959
968 1619 1129 219 53 393 73 645 72 124 0 256 -5 294 -10 l69 -10 36 59 c581
950 1411 1656 2412 2051 703 278 1445 388 2204 326 150 -13 165 -15 179 -29 7
-7 4 -10 -10 -10 -16 0 -17 -2 -4 -11 12 -9 11 -10 -7 -6 -14 3 -23 0 -23 -6
0 -7 -3 -22 -6 -35 -5 -17 -3 -21 9 -17 10 4 16 -2 20 -22 7 -34 -2 -44 -28
-32 -18 9 -18 9 3 5 15 -3 22 0 19 7 -4 13 -39 10 -47 -3 -3 -4 -21 -6 -40 -4
-19 3 -183 7 -365 11 -375 6 -567 -6 -877 -58 -1204 -201 -2281 -860 -3018
-1844 -106 -143 -251 -358 -265 -396 -5 -14 7 -20 72 -34 112 -24 354 -107
480 -163 266 -119 534 -297 753 -499 56 -52 63 -62 51 -76 -11 -14 -10 -16 8
-12 12 2 19 0 16 -6 -4 -5 -11 -7 -16 -4 -5 4 -9 2 -9 -3 0 -6 -10 -8 -22 -4
-14 3 -19 1 -14 -6 8 -14 -35 -27 -63 -19 -14 3 -18 1 -14 -9 3 -8 9 -12 13
-9 4 3 10 -4 13 -15 5 -20 5 -20 -21 1 -15 11 -43 35 -62 53 -147 134 -364
286 -550 384 -535 282 -1178 364 -1770 226 -870 -203 -1576 -849 -1855 -1698
-54 -164 -95 -345 -117 -516 -18 -145 -15 -461 7 -615 9 -71 18 -143 19 -160
0 -16 6 -34 11 -38 6 -5 3 -7 -6 -4 -21 7 -97 -18 -78 -25 8 -3 23 -1 34 5 18
9 18 8 7 -6 -9 -10 -26 -15 -49 -13 -28 2 -34 -1 -30 -14 2 -10 -2 -17 -9 -17
-8 0 -12 3 -9 5 3 3 1 10 -4 16 -11 13 -36 140 -52 256 -18 134 -20 477 -3
620 35 312 127 637 250 882 19 37 34 70 34 73 0 2 -31 21 -70 40 -206 104
-492 283 -711 446 -858 637 -1502 1502 -1869 2508 -312 856 -398 1819 -245
2729 159 940 566 1820 1181 2557 177 211 413 452 429 437 5 -4 5 -2 2 4 -3 6
4 20 17 31 21 18 24 19 34 4 9 -13 10 -12 5 7 -3 12 -1 22 6 22 6 0 8 -7 4
-17z m93 -65 c4 4 2 -1 -5 -11 -15 -19 -24 -16 -27 9 -2 11 1 12 10 5 7 -6 17
-7 22 -3z m8706 -1634 c383 -81 730 -239 1046 -476 122 -92 351 -314 448 -435
70 -86 86 -112 65 -98 -5 3 -30 -2 -55 -10 -26 -9 -51 -13 -56 -10 -6 3 -10 1
-10 -5 0 -6 -4 -8 -10 -5 -5 3 -10 1 -10 -4 0 -6 6 -11 14 -11 8 0 18 -4 21
-10 17 -28 -49 14 -82 52 -88 101 -274 285 -348 344 -309 250 -661 420 -1035
499 -69 14 -134 28 -146 30 -17 4 -52 67 -93 168 -5 14 111 1 251 -29z m1552
-1030 c3 -8 2 -12 -4 -9 -6 3 -10 10 -10 16 0 14 7 11 14 -7z m-44 -4 c-8 -5
-19 -10 -25 -10 -5 0 -3 5 5 10 8 5 20 10 25 10 6 0 3 -5 -5 -10z m5548 -3397
c4 -6 20 -15 36 -19 21 -5 27 -4 22 4 -5 8 -2 10 8 6 9 -3 16 -10 16 -15 0 -5
5 -9 11 -9 5 0 8 3 5 8 -2 4 2 16 10 27 8 10 14 14 14 9 0 -6 -3 -14 -7 -18
-4 -3 -8 -13 -9 -21 -2 -15 -17 -38 -98 -150 -211 -293 -484 -571 -781 -795
-60 -46 -111 -86 -113 -90 -1 -3 44 -45 100 -92 145 -120 279 -248 272 -259
-3 -5 0 -9 5 -9 6 0 11 -4 11 -10 0 -5 -3 -9 -7 -9 -31 5 -56 -4 -60 -20 -3
-12 -11 -17 -19 -14 -10 4 -12 0 -8 -12 6 -15 4 -16 -15 -5 -13 6 -25 9 -29 6
-3 -3 -1 -6 5 -6 6 0 14 -7 17 -15 8 -23 -10 -9 -155 122 -769 694 -1765 983
-2783 807 -806 -138 -1562 -610 -2062 -1286 -511 -691 -730 -1566 -606 -2421
16 -105 16 -120 3 -142 -9 -14 -22 -25 -31 -25 -13 0 -13 2 0 11 13 9 13 10 0
6 -8 -2 -14 -9 -13 -16 3 -12 -30 -35 -63 -45 -20 -6 -22 1 -43 121 -38 230
-45 315 -45 573 0 286 15 449 65 694 94 463 303 938 577 1315 471 646 1109
1091 1877 1310 429 122 954 153 1425 85 439 -63 919 -240 1297 -478 66 -42
125 -76 130 -76 16 0 153 98 278 198 148 120 330 294 445 428 89 103 238 293
254 323 10 20 53 22 64 4z m-10928 -6996 c58 -56 146 -138 195 -182 50 -44
103 -92 118 -108 30 -30 28 -52 -4 -42 -11 4 -19 2 -19 -5 0 -6 4 -9 9 -6 5 3
14 -1 21 -9 10 -12 8 -14 -9 -10 -11 2 -23 -1 -26 -6 -4 -5 -10 -7 -15 -4 -4
3 -6 -3 -3 -13 7 -30 -54 -25 -91 7 -216 186 -426 389 -426 410 0 5 124 67
140 70 3 1 52 -45 110 -102z m375 -349 c5 4 5 1 1 -6 -6 -10 -11 -10 -22 -1
-8 6 -14 14 -14 16 0 3 6 0 13 -6 8 -6 18 -7 22 -3z m-78 -57 c-17 -20 -16
-57 1 -53 8 1 11 -2 6 -9 -5 -9 -13 -5 -27 12 -10 13 -24 24 -30 24 -6 0 -12
6 -15 14 -3 9 2 11 18 6 16 -5 23 -2 27 13 3 13 10 19 19 15 13 -5 13 -8 1
-22z m-1227 -66 c52 -9 143 -28 202 -42 l107 -26 90 -121 c49 -66 89 -122 87
-123 -1 -1 -36 11 -77 28 -140 57 -338 107 -509 128 -126 16 -415 14 -539 -4
-608 -89 -1128 -422 -1471 -942 -64 -95 -69 -100 -85 -85 -16 16 -17 16 -7 -4
9 -16 8 -21 -3 -21 -8 0 -14 3 -13 6 3 28 -4 33 -33 27 -38 -7 -79 2 -79 18 0
22 101 183 183 292 363 484 902 796 1519 879 136 19 496 13 628 -10z m1737
-1413 c26 -14 54 -86 93 -237 45 -175 86 -460 61 -425 -7 10 -11 11 -11 3 0
-9 -7 -10 -25 -3 -14 5 -32 7 -42 3 -11 -5 -14 -3 -8 6 6 10 3 11 -14 2 -18
-10 -21 -9 -22 6 0 11 -3 13 -6 6 -2 -7 -8 -13 -12 -13 -4 0 -8 6 -9 13 -24
226 -113 542 -206 726 -14 28 -26 53 -26 55 0 3 46 -25 103 -63 56 -37 112
-73 124 -79z"/>
<path d="M45940 17881 c0 -6 4 -13 10 -16 6 -3 7 1 4 9 -7 18 -14 21 -14 7z"/>
<path d="M46488 2393 c7 -3 16 -2 19 1 4 3 -2 6 -13 5 -11 0 -14 -3 -6 -6z"/>
</g>
</svg>
